<?xml version="1.0" standalone="no"?>
<!DOCTYPE svg PUBLIC "-//W3C//DTD SVG 20010904//EN"
 "http://www.w3.org/TR/2001/REC-SVG-20010904/DTD/svg10.dtd">
<svg version="1.0" xmlns="http://www.w3.org/2000/svg"
width="100%" height="100%" viewBox="0 0 720.000000 85.000000"
 preserveAspectRatio="xMidYMid meet">

<g transform="translate(0.000000, 120.0000) scale(0.100000,-0.100000)"
stroke="none">
<path d="M3792 1285 c-45 -20 -124 -104 -160 -173 -33 -61 -76 -204 -87 -285
-6 -44 -10 -50 -66 -88 -67 -45 -78 -62 -60 -91 10 -16 10 -19 -1 -16 -14 5
-28 41 -49 122 -8 33 -25 62 -50 87 l-37 37 40 6 c43 7 112 38 142 65 10 9 27
33 37 53 73 143 -97 279 -297 238 -274 -56 -439 -348 -343 -606 21 -57 81
-119 124 -130 101 -25 161 53 191 250 16 98 19 106 39 106 27 0 38 -22 64
-134 23 -98 52 -161 80 -176 30 -16 102 -11 147 9 41 19 42 19 63 -3 17 -16
33 -21 74 -20 62 2 167 27 222 54 21 11 42 15 45 10 3 -5 17 -13 32 -19 30
-11 107 7 143 33 18 13 22 12 45 -9 40 -38 69 -40 131 -7 l55 29 27 -30 c23
-25 32 -28 59 -23 17 3 46 17 63 31 l32 24 11 -25 c8 -16 20 -24 37 -24 29 0
38 16 85 149 l34 94 17 -54 c10 -29 25 -59 35 -66 47 -35 157 3 168 58 11 58
9 63 -20 44 -42 -27 -80 -35 -100 -20 -16 11 -17 19 -7 76 12 74 4 99 -33 99
-30 0 -70 -38 -90 -85 -20 -48 -28 -44 -21 10 8 57 1 75 -29 75 -29 0 -38 -19
-64 -140 -17 -75 -24 -89 -59 -122 -22 -21 -47 -38 -56 -38 -20 0 -20 58 -1
158 17 89 13 112 -22 112 -14 0 -33 7 -43 16 -51 46 -175 -46 -218 -160 -11
-31 -21 -65 -21 -76 0 -20 -56 -60 -84 -60 -24 0 -21 70 9 171 29 98 31 127
10 135 -21 8 -73 -15 -79 -35 -21 -69 -56 -218 -56 -238 0 -22 -2 -24 -15 -13
-12 10 -33 8 -110 -14 -53 -15 -106 -26 -118 -24 -20 3 -22 8 -19 53 2 43 7
54 35 75 163 127 266 287 267 413 0 113 -53 153 -148 112z m48 -86 c27 -49
-44 -195 -152 -314 l-46 -50 9 54 c18 118 78 251 136 301 40 36 39 36 53 9z
m-485 -53 c46 -20 69 -57 61 -101 -10 -54 -61 -85 -164 -99 l-44 -6 4 62 c3
61 2 63 -23 66 -33 4 -59 -26 -66 -76 -5 -39 -6 -40 -39 -35 -31 5 -34 4 -34
-20 0 -17 11 -34 31 -50 l30 -24 -11 -99 c-13 -119 -33 -168 -72 -172 -40 -5
-74 37 -89 106 -21 100 15 249 81 343 68 94 234 147 335 105z m946 -360 c-24
-101 -45 -138 -75 -134 -56 8 -11 177 58 219 17 10 32 15 34 10 2 -5 -6 -48
-17 -95z m-771 -121 c0 -2 -10 -9 -22 -15 -22 -11 -22 -10 -4 4 21 17 26 19
26 11z"/>
<path d="M2787 1238 c-31 -11 -32 -14 -47 -157 -31 -288 -123 -481 -228 -481
-119 0 -142 145 -66 415 46 163 47 176 12 189 -50 18 -73 -3 -102 -91 -58
-179 -70 -364 -31 -475 20 -58 80 -114 130 -124 218 -41 393 218 398 590 2
120 1 129 -18 136 -11 4 -32 3 -48 -2z"/>
<path d="M3995 1105 c-29 -28 -31 -42 -9 -73 19 -28 83 -31 106 -4 28 31 31
59 9 81 -29 29 -76 27 -106 -4z" />
</g>
</svg>
